<?xml version="1.0" encoding="utf-8"?>
<!-- Generator: Adobe Illustrator 23.0.0, SVG Export Plug-In . SVG Version: 6.00 Build 0)  -->
<svg version="1.1" stroke="currentColor" id="icons" xmlns="http://www.w3.org/2000/svg" xmlns:xlink="http://www.w3.org/1999/xlink" x="0px" y="0px" viewBox="0 0 49.17 33.83" style="enable-background:new 0 0 49.17 33.83;stroke-width:2;stroke-miterlimit:10;fill:none;" xml:space="preserve">
	<polyline points="4.83,13.02 4.83,2.02 31.83,2.02 31.83,26.02 24.83,26.02"/>
	<rect x="1.83" y="15.02" width="21" height="17"/>
	<rect x="8.83" y="15.02" width="7" height="4"/>
	<line x1="4.83" y1="28.02" x2="6.83" y2="28.02"/>
	<line x1="8.83" y1="28.02" x2="10.83" y2="28.02"/>
	<path d="M31.83,8.02h7.94c0.66,0,1.28,0.33,1.65,0.87l3.4,6.13h1c1.13,0,2,0.75,2,2.21v6.79 c0,1.1-0.9,2-2,2h-2"/>
	<path d="M43.83,27.03c0,2.2-1.79,3.99-4.01,3.99c-2.21,0-4.01-1.79-4.01-3.99c0-2.2,1.79-3.99,4.01-3.99 C42.04,23.04,43.83,24.83,43.83,27.03z"/>
	<line x1="31.83" y1="26.02" x2="35.83" y2="26.02"/>
	<polyline points="33.83,16.02 40.83,16.02 40.83,15.02 38.83,12.02"/>
</svg>
