<svg width="14" height="14" viewBox="0 0 14 14" fill="currentColor" xmlns="http://www.w3.org/2000/svg">
<path d="M13.3 0.70875C12.91 0.31875 12.28 0.31875 11.89 0.70875L7 5.58875L2.11 0.69875C1.72 0.30875 1.09 0.30875 0.700001 0.69875C0.310001 1.08875 0.310001 1.71875 0.700001 2.10875L5.59 6.99875L0.700001 11.8887C0.310001 12.2787 0.310001 12.9087 0.700001 13.2987C1.09 13.6887 1.72 13.6887 2.11 13.2987L7 8.40875L11.89 13.2987C12.28 13.6887 12.91 13.6887 13.3 13.2987C13.69 12.9087 13.69 12.2787 13.3 11.8887L8.41 6.99875L13.3 2.10875C13.68 1.72875 13.68 1.08875 13.3 0.70875Z"/>
</svg>
