<?xml version="1.0" encoding="utf-8"?>
<!-- Generator: Adobe Illustrator 23.0.0, SVG Export Plug-In . SVG Version: 6.00 Build 0)  -->
<svg version="1.1" fill="currentColor" id="icons" xmlns="http://www.w3.org/2000/svg" xmlns:xlink="http://www.w3.org/1999/xlink" x="0px" y="0px" viewBox="0 0 325.5 315.2" style="enable-background:new 0 0 325.5 315.2" xml:space="preserve">
	<path d="M291.4,249.5l-73.2-73.2c9.6-16.3,14.3-34.5,14.3-52.6c0-27-10.4-53.8-30.4-73.9c-19.7-19.7-45.9-30.5-73.7-30.5 c-27.8,0-54,10.8-73.7,30.5c-19.7,19.7-30.5,45.9-30.5,73.7c0,27.8,10.8,54,30.5,73.7c33.5,33.5,86,40,126.5,16.2l73.2,73.2 c4.9,4.9,11.5,7.7,18.5,7.7c7,0,13.6-2.7,18.5-7.7c4.9-4.9,7.7-11.5,7.7-18.5C299.1,261.1,296.3,254.5,291.4,249.5z M128.3,186.2 c-16.7,0-32.5-6.5-44.3-18.3c-11.8-11.8-18.3-27.5-18.3-44.3S72.2,91.1,84,79.3c11.8-11.8,27.6-18.3,44.3-18.3 c8.4,0,16.5,1.6,24,4.7c7.5,3.1,14.4,7.7,20.3,13.6c11.8,11.8,18.3,27.5,18.3,44.3s-6.5,32.5-18.3,44.3 C160.8,179.7,145,186.2,128.3,186.2z"/>
</svg>
