<?xml version="1.0" encoding="utf-8"?>
<!-- Generator: Adobe Illustrator 23.0.0, SVG Export Plug-In . SVG Version: 6.00 Build 0)  -->
<svg version="1.1" fill="currentColor" id="icons" xmlns="http://www.w3.org/2000/svg" xmlns:xlink="http://www.w3.org/1999/xlink" x="0px" y="0px" viewBox="0 0 228 171.5" style="enable-background:new 0 0 228 171.5" xml:space="preserve">
	<path d="M208.5,142.5c-0.5,1.1-1.3,2-2.2,2.9c-0.8,0.8-1.7,1.3-2.7,1.7c-7,5.5-15.9,8.8-25.4,8.8H49.8 c-9.6,0-18.3-3.3-25.3-8.8c-1-0.4-1.9-1-2.7-1.7c-1-0.8-1.7-1.8-2.3-2.9c-6.6-7.3-10.8-17-10.8-27.7V56.7 c0-22.6,18.5-41.1,41.1-41.1h128.4c22.6,0,41.1,18.4,41.1,41.1v58.1C219.2,125.5,215.2,135.2,208.5,142.5L208.5,142.5z M184.5,135.5 l-36.2-40.4l-7.4,6.7c-7.5,6.7-17.2,10-26.8,10c-9.6,0-19.4-3.3-26.8-10l-7.5-6.7l-36.2,40.4c2,0.6,4.1,1,6.3,1h128.4 C180.4,136.4,182.5,136.1,184.5,135.5L184.5,135.5z M29.5,122.1l35.8-40l-36-32.3c-0.7,2.2-1.1,4.4-1.1,6.8v58.1 C28.2,117.4,28.6,119.8,29.5,122.1L29.5,122.1z M43,36.2L100,87.3c3.8,3.4,8.8,5,14,5c5.1,0,10.2-1.7,13.9-5l57.2-51.1 c-2.2-0.8-4.5-1.1-6.9-1.1H49.8C47.4,35.1,45.1,35.4,43,36.2L43,36.2z M198.8,49.9l-36,32.3l35.8,40c0.8-2.3,1.3-4.7,1.3-7.4V56.7 C199.8,54.3,199.5,52.1,198.8,49.9L198.8,49.9z"/>
</svg>