<?xml version="1.0" encoding="utf-8"?>
<!-- Generator: Adobe Illustrator 23.0.0, SVG Export Plug-In . SVG Version: 6.00 Build 0)  -->
<svg version="1.1" fill="currentColor" id="icons" xmlns="http://www.w3.org/2000/svg" xmlns:xlink="http://www.w3.org/1999/xlink" x="0px" y="0px" viewBox="0 0 710 634" style="enable-background:new 0 0 710 634" xml:space="preserve">
	<path d="M305.5,174.3c-17.8-64.4-27.8-100.7-30.1-109c-8.6-31.3-74.2-17.2-96.9-1.3c-96,67-42.6,202.3,9.8,280.7 C284,472,377.8,539.9,469.6,548.5c72.9,12.9,159.1-19,150.4-105.3c-1.2-11.8-4-21-8.3-27.7c-7.2-10-49.1-23.9-125.9-41.7 c-14.7-2.6-30,5.8-45.8,25.2c-2.4,3-4.8,5.6-7.3,7.9c-12.1,11.1-19.7,13.2-33.8,5.6c-43.2-23-118.8-117.2-136.2-146.3 c-5.1-12-1.3-22.5,11.4-31.7C298.9,218,309.4,197.9,305.5,174.3"/>
</svg>