<?xml version="1.0" encoding="utf-8"?>
<!-- Generator: Adobe Illustrator 23.0.0, SVG Export Plug-In . SVG Version: 6.00 Build 0)  -->
<svg version="1.1" fill="currentColor" id="icons" xmlns="http://www.w3.org/2000/svg" xmlns:xlink="http://www.w3.org/1999/xlink" x="0px" y="0px" viewBox="0 0 264.7 248.7" style="enable-background:new 0 0 264.7 248.7" xml:space="preserve">
	<path d="M153.4,71.8c-0.9-0.9-2-1.3-3.1-1.3c-1.1,0-2.3,0.4-3.2,1.3l-28,28l-28,28c-0.9,0.9-1.3,2-1.3,3.1 c0,1.1,0.4,2.3,1.3,3.2l28,28l28,28c0.4,0.4,0.9,0.8,1.5,1c0.5,0.2,1.1,0.3,1.6,0.3c0.6,0,1.1-0.1,1.7-0.3c0.5-0.2,1-0.6,1.5-1 c0.9-0.9,1.3-2,1.3-3.1c0-1.1-0.4-2.3-1.3-3.2l-26.4-26.4L100.5,131l26.5-26.4l26.5-26.4c0.9-0.9,1.3-2,1.3-3.1 C154.7,73.8,154.2,72.7,153.4,71.8z"/>
	<path d="M150.2,195c-1,0-2-0.2-3-0.6c-1-0.4-1.8-1-2.6-1.8l-56-56c-1.5-1.6-2.3-3.6-2.3-5.7c0-2.1,0.8-4.1,2.3-5.6 l56-56c1.6-1.5,3.6-2.3,5.7-2.3c2.1,0,4.1,0.8,5.6,2.3l0.1,0.1c1.5,1.5,2.3,3.5,2.3,5.6c0,2.1-0.8,4.1-2.3,5.6L105.4,131l50.3,50.4 c1.5,1.6,2.3,3.6,2.3,5.7c0,2.1-0.8,4.1-2.3,5.6c-0.7,0.8-1.6,1.4-2.6,1.8C152.2,194.8,151.2,195,150.2,195z M150.2,74 c-0.2,0-0.5,0-0.8,0.3l-56,56c-0.2,0.2-0.3,0.5-0.3,0.7c0,0.2,0,0.5,0.3,0.8l56,56c0.1,0.1,0.2,0.2,0.4,0.3c0.2,0.1,0.4,0.1,0.6,0 c0.1,0,0.2-0.1,0.2-0.1l0.1-0.1c0.2-0.2,0.3-0.5,0.3-0.7c0-0.2,0-0.5-0.3-0.8L95.5,131l55.4-55.4c0.2-0.2,0.3-0.5,0.3-0.7 c0-0.2,0-0.5-0.3-0.7C150.7,74,150.4,74,150.2,74z"/>
</svg>