<?xml version="1.0" encoding="utf-8"?>
<!-- Generator: Adobe Illustrator 23.0.0, SVG Export Plug-In . SVG Version: 6.00 Build 0)  -->
<svg version="1.1" id="icons" fill="currentColor" stroke="currentColor" xmlns="http://www.w3.org/2000/svg" xmlns:xlink="http://www.w3.org/1999/xlink" x="0px" y="0px" viewBox="0 0 49.38 51.25" style="enable-background:new 0 0 49.38 51.25;stroke-miterlimit:10" xml:space="preserve">
<path d="M24.75,42.6l-0.06-0.09l-0.06,0.09l-0.82-1.18c-0.39-0.56-9.53-13.69-11.29-16.51 c-1.87-2.99-2.63-5.56-2.62-8.86C9.91,7.93,16.54,1.31,24.67,1.31c8.17,0,14.8,6.62,14.81,14.75c0,3.31-0.75,5.88-2.62,8.86 c-1.76,2.81-10.9,15.95-11.29,16.51L24.75,42.6z M24.71,3.31c-7.07,0-12.8,5.72-12.81,12.75c0,2.94,0.65,5.13,2.32,7.8 c1.43,2.28,8.08,11.88,10.42,15.25l0.06-0.09l0.05,0.08c2.34-3.37,8.98-12.96,10.41-15.24c1.67-2.68,2.32-4.86,2.32-7.8 C37.47,9.03,31.74,3.31,24.71,3.31z"/>
<path d="M24.72,24.01l-0.09,0c-2.11-0.03-4.01-0.83-5.44-2.27c-1.46-1.46-2.26-3.4-2.26-5.47 c0.01-4.26,3.48-7.72,7.75-7.72c4.28,0,7.75,3.46,7.76,7.72c0,2.07-0.8,4.01-2.26,5.47C28.73,23.2,26.79,24.01,24.72,24.01z M24.7,10.55c-3.18,0-5.76,2.57-5.76,5.72c0,1.53,0.59,2.97,1.67,4.05c1.08,1.08,2.52,1.68,4.05,1.68h0.06 c1.53,0,2.97-0.6,4.05-1.68c1.08-1.08,1.68-2.52,1.67-4.05C30.44,13.12,27.86,10.55,24.7,10.55z"/>
<path d="M35.7,31.15l-1.1,1.81c6.92,1.4,11.55,4.21,11.55,7.01c0,3.83-8.62,7.94-21.46,7.97 C11.86,47.91,3.23,43.8,3.23,39.97c0-2.8,4.63-5.6,11.53-7l-1.1-1.81c-7.8,1.71-12.43,4.97-12.43,8.81c0,5.56,10.3,9.94,23.46,9.97 c13.15-0.03,23.46-4.4,23.46-9.97C48.15,36.13,43.51,32.87,35.7,31.15z"/>
</svg>
