<?xml version="1.0" encoding="utf-8"?><svg xmlns="http://www.w3.org/2000/svg" xmlns:xlink="http://www.w3.org/1999/xlink"><symbol stroke="currentColor" viewBox="0 0 49.17 33.83" stroke-width="2" stroke-miterlimit="10" fill="none" id="car" xmlns="http://www.w3.org/2000/svg"><path d="M4.83 13.02v-11h27v24h-7"/><path d="M1.83 15.02h21v17h-21z"/><path d="M8.83 15.02h7v4h-7zM4.83 28.02h2M8.83 28.02h2M31.83 8.02h7.94c.66 0 1.28.33 1.65.87l3.4 6.13h1c1.13 0 2 .75 2 2.21v6.79c0 1.1-.9 2-2 2h-2"/><path d="M43.83 27.03c0 2.2-1.79 3.99-4.01 3.99-2.21 0-4.01-1.79-4.01-3.99s1.79-3.99 4.01-3.99c2.22 0 4.01 1.79 4.01 3.99zM31.83 26.02h4M33.83 16.02h7v-1l-2-3"/></symbol><symbol fill="currentColor" stroke="currentColor" viewBox="0 0 49.38 51.25" stroke-miterlimit="10" id="geo" xmlns="http://www.w3.org/2000/svg"><path d="M24.75 42.6l-.06-.09-.06.09-.82-1.18c-.39-.56-9.53-13.69-11.29-16.51-1.87-2.99-2.63-5.56-2.62-8.86.01-8.12 6.64-14.74 14.77-14.74 8.17 0 14.8 6.62 14.81 14.75 0 3.31-.75 5.88-2.62 8.86-1.76 2.81-10.9 15.95-11.29 16.51l-.82 1.17zm-.04-39.29c-7.07 0-12.8 5.72-12.81 12.75 0 2.94.65 5.13 2.32 7.8 1.43 2.28 8.08 11.88 10.42 15.25l.06-.09.05.08c2.34-3.37 8.98-12.96 10.41-15.24 1.67-2.68 2.32-4.86 2.32-7.8-.01-7.03-5.74-12.75-12.77-12.75z"/><path d="M24.72 24.01h-.09c-2.11-.03-4.01-.83-5.44-2.27a7.676 7.676 0 01-2.26-5.47c.01-4.26 3.48-7.72 7.75-7.72 4.28 0 7.75 3.46 7.76 7.72 0 2.07-.8 4.01-2.26 5.47a7.645 7.645 0 01-5.46 2.27zm-.02-13.46c-3.18 0-5.76 2.57-5.76 5.72 0 1.53.59 2.97 1.67 4.05A5.697 5.697 0 0024.66 22h.06c1.53 0 2.97-.6 4.05-1.68a5.646 5.646 0 001.67-4.05c0-3.15-2.58-5.72-5.74-5.72zM35.7 31.15l-1.1 1.81c6.92 1.4 11.55 4.21 11.55 7.01 0 3.83-8.62 7.94-21.46 7.97-12.83-.03-21.46-4.14-21.46-7.97 0-2.8 4.63-5.6 11.53-7l-1.1-1.81c-7.8 1.71-12.43 4.97-12.43 8.81 0 5.56 10.3 9.94 23.46 9.97 13.15-.03 23.46-4.4 23.46-9.97 0-3.84-4.64-7.1-12.45-8.82z"/></symbol></svg>