<svg xmlns="http://www.w3.org/2000/svg">
	<symbol id="arrow" fill="currentColor" viewBox="0 0 264.7 248.7" style="image-rendering: optimizeQuality;shape-rendering:geometricPrecision;text-rendering:geometricPrecision">
		<path d="M153.4,71.8c-0.9-0.9-2-1.3-3.1-1.3c-1.1,0-2.3,0.4-3.2,1.3l-28,28l-28,28c-0.9,0.9-1.3,2-1.3,3.1 c0,1.1,0.4,2.3,1.3,3.2l28,28l28,28c0.4,0.4,0.9,0.8,1.5,1c0.5,0.2,1.1,0.3,1.6,0.3c0.6,0,1.1-0.1,1.7-0.3c0.5-0.2,1-0.6,1.5-1 c0.9-0.9,1.3-2,1.3-3.1c0-1.1-0.4-2.3-1.3-3.2l-26.4-26.4L100.5,131l26.5-26.4l26.5-26.4c0.9-0.9,1.3-2,1.3-3.1 C154.7,73.8,154.2,72.7,153.4,71.8z"/>
		<path d="M150.2,195c-1,0-2-0.2-3-0.6c-1-0.4-1.8-1-2.6-1.8l-56-56c-1.5-1.6-2.3-3.6-2.3-5.7c0-2.1,0.8-4.1,2.3-5.6 l56-56c1.6-1.5,3.6-2.3,5.7-2.3c2.1,0,4.1,0.8,5.6,2.3l0.1,0.1c1.5,1.5,2.3,3.5,2.3,5.6c0,2.1-0.8,4.1-2.3,5.6L105.4,131l50.3,50.4 c1.5,1.6,2.3,3.6,2.3,5.7c0,2.1-0.8,4.1-2.3,5.6c-0.7,0.8-1.6,1.4-2.6,1.8C152.2,194.8,151.2,195,150.2,195z M150.2,74 c-0.2,0-0.5,0-0.8,0.3l-56,56c-0.2,0.2-0.3,0.5-0.3,0.7c0,0.2,0,0.5,0.3,0.8l56,56c0.1,0.1,0.2,0.2,0.4,0.3c0.2,0.1,0.4,0.1,0.6,0 c0.1,0,0.2-0.1,0.2-0.1l0.1-0.1c0.2-0.2,0.3-0.5,0.3-0.7c0-0.2,0-0.5-0.3-0.8L95.5,131l55.4-55.4c0.2-0.2,0.3-0.5,0.3-0.7 c0-0.2,0-0.5-0.3-0.7C150.7,74,150.4,74,150.2,74z"/>
	</symbol>
	<symbol id="mail" fill="currentColor" viewBox="0 0 228 171.5" style="image-rendering: optimizeQuality;shape-rendering:geometricPrecision;text-rendering:geometricPrecision">
		<path d="M208.5,142.5c-0.5,1.1-1.3,2-2.2,2.9c-0.8,0.8-1.7,1.3-2.7,1.7c-7,5.5-15.9,8.8-25.4,8.8H49.8 c-9.6,0-18.3-3.3-25.3-8.8c-1-0.4-1.9-1-2.7-1.7c-1-0.8-1.7-1.8-2.3-2.9c-6.6-7.3-10.8-17-10.8-27.7V56.7 c0-22.6,18.5-41.1,41.1-41.1h128.4c22.6,0,41.1,18.4,41.1,41.1v58.1C219.2,125.5,215.2,135.2,208.5,142.5L208.5,142.5z M184.5,135.5 l-36.2-40.4l-7.4,6.7c-7.5,6.7-17.2,10-26.8,10c-9.6,0-19.4-3.3-26.8-10l-7.5-6.7l-36.2,40.4c2,0.6,4.1,1,6.3,1h128.4 C180.4,136.4,182.5,136.1,184.5,135.5L184.5,135.5z M29.5,122.1l35.8-40l-36-32.3c-0.7,2.2-1.1,4.4-1.1,6.8v58.1 C28.2,117.4,28.6,119.8,29.5,122.1L29.5,122.1z M43,36.2L100,87.3c3.8,3.4,8.8,5,14,5c5.1,0,10.2-1.7,13.9-5l57.2-51.1 c-2.2-0.8-4.5-1.1-6.9-1.1H49.8C47.4,35.1,45.1,35.4,43,36.2L43,36.2z M198.8,49.9l-36,32.3l35.8,40c0.8-2.3,1.3-4.7,1.3-7.4V56.7 C199.8,54.3,199.5,52.1,198.8,49.9L198.8,49.9z"/>
	</symbol>
	<symbol id="phone" fill="currentColor" viewBox="0 0 710 634" style="image-rendering: optimizeQuality;shape-rendering:geometricPrecision;text-rendering:geometricPrecision">
		<path d="M305.5,174.3c-17.8-64.4-27.8-100.7-30.1-109c-8.6-31.3-74.2-17.2-96.9-1.3c-96,67-42.6,202.3,9.8,280.7 C284,472,377.8,539.9,469.6,548.5c72.9,12.9,159.1-19,150.4-105.3c-1.2-11.8-4-21-8.3-27.7c-7.2-10-49.1-23.9-125.9-41.7 c-14.7-2.6-30,5.8-45.8,25.2c-2.4,3-4.8,5.6-7.3,7.9c-12.1,11.1-19.7,13.2-33.8,5.6c-43.2-23-118.8-117.2-136.2-146.3 c-5.1-12-1.3-22.5,11.4-31.7C298.9,218,309.4,197.9,305.5,174.3"/>
	</symbol>
	<symbol id="cross" fill="currentColor" viewBox="0 0 437 361" style="image-rendering: optimizeQuality;shape-rendering:geometricPrecision;text-rendering:geometricPrecision">
		<path d="M87.9,74.4c-24-24,12.5-60.5,36.5-36.5l94.8,94.8l94.8-94.8c24-24,60.5,12.5,36.5,36.5l-94.8,94.8l94.8,94.8 c24,24-12.5,60.5-36.5,36.5l-94.8-94.8l-94.8,94.8c-24,24-60.5-12.5-36.5-36.5l94.8-94.8L87.9,74.4L87.9,74.4z"/>
	</symbol>
	<symbol id="magnifier" fill="currentColor" viewBox="0 0 325.5 315.2" style="image-rendering: optimizeQuality;shape-rendering:geometricPrecision;text-rendering:geometricPrecision">
		<path d="M291.4,249.5l-73.2-73.2c9.6-16.3,14.3-34.5,14.3-52.6c0-27-10.4-53.8-30.4-73.9c-19.7-19.7-45.9-30.5-73.7-30.5 c-27.8,0-54,10.8-73.7,30.5c-19.7,19.7-30.5,45.9-30.5,73.7c0,27.8,10.8,54,30.5,73.7c33.5,33.5,86,40,126.5,16.2l73.2,73.2 c4.9,4.9,11.5,7.7,18.5,7.7c7,0,13.6-2.7,18.5-7.7c4.9-4.9,7.7-11.5,7.7-18.5C299.1,261.1,296.3,254.5,291.4,249.5z M128.3,186.2 c-16.7,0-32.5-6.5-44.3-18.3c-11.8-11.8-18.3-27.5-18.3-44.3S72.2,91.1,84,79.3c11.8-11.8,27.6-18.3,44.3-18.3 c8.4,0,16.5,1.6,24,4.7c7.5,3.1,14.4,7.7,20.3,13.6c11.8,11.8,18.3,27.5,18.3,44.3s-6.5,32.5-18.3,44.3 C160.8,179.7,145,186.2,128.3,186.2z"/>
	</symbol>
</svg>