<?xml version="1.0" encoding="utf-8"?><svg xmlns="http://www.w3.org/2000/svg" xmlns:xlink="http://www.w3.org/1999/xlink"><symbol fill="currentColor" viewBox="0 0 264.7 248.7" id="arrow" xmlns="http://www.w3.org/2000/svg"><path d="M153.4 71.8c-.9-.9-2-1.3-3.1-1.3s-2.3.4-3.2 1.3l-28 28-28 28c-.9.9-1.3 2-1.3 3.1s.4 2.3 1.3 3.2l28 28 28 28c.4.4.9.8 1.5 1 .5.2 1.1.3 1.6.3.6 0 1.1-.1 1.7-.3.5-.2 1-.6 1.5-1 .9-.9 1.3-2 1.3-3.1s-.4-2.3-1.3-3.2L127 157.4 100.5 131l26.5-26.4 26.5-26.4c.9-.9 1.3-2 1.3-3.1-.1-1.3-.6-2.4-1.4-3.3z"/><path d="M150.2 195c-1 0-2-.2-3-.6-1-.4-1.8-1-2.6-1.8l-56-56c-1.5-1.6-2.3-3.6-2.3-5.7s.8-4.1 2.3-5.6l56-56c1.6-1.5 3.6-2.3 5.7-2.3s4.1.8 5.6 2.3l.1.1c1.5 1.5 2.3 3.5 2.3 5.6 0 2.1-.8 4.1-2.3 5.6L105.4 131l50.3 50.4c1.5 1.6 2.3 3.6 2.3 5.7s-.8 4.1-2.3 5.6c-.7.8-1.6 1.4-2.6 1.8-.9.3-1.9.5-2.9.5zm0-121c-.2 0-.5 0-.8.3l-56 56c-.2.2-.3.5-.3.7 0 .2 0 .5.3.8l56 56c.1.1.2.2.4.3.2.1.4.1.6 0 .1 0 .2-.1.2-.1l.1-.1c.2-.2.3-.5.3-.7 0-.2 0-.5-.3-.8L95.5 131l55.4-55.4c.2-.2.3-.5.3-.7 0-.2 0-.5-.3-.7-.2-.2-.5-.2-.7-.2z"/></symbol><symbol fill="currentColor" viewBox="0 0 437 361" id="cross" xmlns="http://www.w3.org/2000/svg"><path d="M87.9 74.4c-24-24 12.5-60.5 36.5-36.5l94.8 94.8L314 37.9c24-24 60.5 12.5 36.5 36.5l-94.8 94.8 94.8 94.8c24 24-12.5 60.5-36.5 36.5l-94.8-94.8-94.8 94.8c-24 24-60.5-12.5-36.5-36.5l94.8-94.8-94.8-94.8z"/></symbol><symbol fill="currentColor" stroke="currentColor" viewBox="0 0 49.38 51.25" stroke-miterlimit="10" id="geo" xmlns="http://www.w3.org/2000/svg"><path d="M24.75 42.6l-.06-.09-.06.09-.82-1.18c-.39-.56-9.53-13.69-11.29-16.51-1.87-2.99-2.63-5.56-2.62-8.86.01-8.12 6.64-14.74 14.77-14.74 8.17 0 14.8 6.62 14.81 14.75 0 3.31-.75 5.88-2.62 8.86-1.76 2.81-10.9 15.95-11.29 16.51l-.82 1.17zm-.04-39.29c-7.07 0-12.8 5.72-12.81 12.75 0 2.94.65 5.13 2.32 7.8 1.43 2.28 8.08 11.88 10.42 15.25l.06-.09.05.08c2.34-3.37 8.98-12.96 10.41-15.24 1.67-2.68 2.32-4.86 2.32-7.8-.01-7.03-5.74-12.75-12.77-12.75z"/><path d="M24.72 24.01h-.09c-2.11-.03-4.01-.83-5.44-2.27a7.676 7.676 0 01-2.26-5.47c.01-4.26 3.48-7.72 7.75-7.72 4.28 0 7.75 3.46 7.76 7.72 0 2.07-.8 4.01-2.26 5.47a7.645 7.645 0 01-5.46 2.27zm-.02-13.46c-3.18 0-5.76 2.57-5.76 5.72 0 1.53.59 2.97 1.67 4.05A5.697 5.697 0 0024.66 22h.06c1.53 0 2.97-.6 4.05-1.68a5.646 5.646 0 001.67-4.05c0-3.15-2.58-5.72-5.74-5.72zM35.7 31.15l-1.1 1.81c6.92 1.4 11.55 4.21 11.55 7.01 0 3.83-8.62 7.94-21.46 7.97-12.83-.03-21.46-4.14-21.46-7.97 0-2.8 4.63-5.6 11.53-7l-1.1-1.81c-7.8 1.71-12.43 4.97-12.43 8.81 0 5.56 10.3 9.94 23.46 9.97 13.15-.03 23.46-4.4 23.46-9.97 0-3.84-4.64-7.1-12.45-8.82z"/></symbol><symbol fill="currentColor" viewBox="0 0 325.5 315.2" id="magnifier" xmlns="http://www.w3.org/2000/svg"><path d="M291.4 249.5l-73.2-73.2c9.6-16.3 14.3-34.5 14.3-52.6 0-27-10.4-53.8-30.4-73.9-19.7-19.7-45.9-30.5-73.7-30.5-27.8 0-54 10.8-73.7 30.5C35 69.5 24.2 95.7 24.2 123.5c0 27.8 10.8 54 30.5 73.7 33.5 33.5 86 40 126.5 16.2l73.2 73.2c4.9 4.9 11.5 7.7 18.5 7.7s13.6-2.7 18.5-7.7c4.9-4.9 7.7-11.5 7.7-18.5s-2.8-13.6-7.7-18.6zm-163.1-63.3c-16.7 0-32.5-6.5-44.3-18.3-11.8-11.8-18.3-27.5-18.3-44.3S72.2 91.1 84 79.3C95.8 67.5 111.6 61 128.3 61c8.4 0 16.5 1.6 24 4.7s14.4 7.7 20.3 13.6c11.8 11.8 18.3 27.5 18.3 44.3s-6.5 32.5-18.3 44.3c-11.8 11.8-27.6 18.3-44.3 18.3z"/></symbol><symbol fill="currentColor" viewBox="0 0 228 171.5" id="mail" xmlns="http://www.w3.org/2000/svg"><path d="M208.5 142.5c-.5 1.1-1.3 2-2.2 2.9-.8.8-1.7 1.3-2.7 1.7-7 5.5-15.9 8.8-25.4 8.8H49.8c-9.6 0-18.3-3.3-25.3-8.8-1-.4-1.9-1-2.7-1.7-1-.8-1.7-1.8-2.3-2.9-6.6-7.3-10.8-17-10.8-27.7V56.7c0-22.6 18.5-41.1 41.1-41.1h128.4c22.6 0 41.1 18.4 41.1 41.1v58.1c-.1 10.7-4.1 20.4-10.8 27.7zm-24-7l-36.2-40.4-7.4 6.7c-7.5 6.7-17.2 10-26.8 10-9.6 0-19.4-3.3-26.8-10l-7.5-6.7-36.2 40.4c2 .6 4.1 1 6.3 1h128.4c2.1-.1 4.2-.4 6.2-1zm-155-13.4l35.8-40-36-32.3c-.7 2.2-1.1 4.4-1.1 6.8v58.1c0 2.7.4 5.1 1.3 7.4zM43 36.2l57 51.1c3.8 3.4 8.8 5 14 5 5.1 0 10.2-1.7 13.9-5l57.2-51.1c-2.2-.8-4.5-1.1-6.9-1.1H49.8c-2.4 0-4.7.3-6.8 1.1zm155.8 13.7l-36 32.3 35.8 40c.8-2.3 1.3-4.7 1.3-7.4V56.7c-.1-2.4-.4-4.6-1.1-6.8z"/></symbol><symbol fill="currentColor" viewBox="0 0 710 634" id="phone" xmlns="http://www.w3.org/2000/svg"><path d="M305.5 174.3c-17.8-64.4-27.8-100.7-30.1-109-8.6-31.3-74.2-17.2-96.9-1.3-96 67-42.6 202.3 9.8 280.7C284 472 377.8 539.9 469.6 548.5c72.9 12.9 159.1-19 150.4-105.3-1.2-11.8-4-21-8.3-27.7-7.2-10-49.1-23.9-125.9-41.7-14.7-2.6-30 5.8-45.8 25.2-2.4 3-4.8 5.6-7.3 7.9-12.1 11.1-19.7 13.2-33.8 5.6-43.2-23-118.8-117.2-136.2-146.3-5.1-12-1.3-22.5 11.4-31.7 24.8-16.5 35.3-36.6 31.4-60.2"/></symbol></svg>