<?xml version="1.0" encoding="utf-8"?>
<!-- Generator: Adobe Illustrator 23.0.0, SVG Export Plug-In . SVG Version: 6.00 Build 0)  -->
<svg version="1.1" id="icons" xmlns="http://www.w3.org/2000/svg" xmlns:xlink="http://www.w3.org/1999/xlink" x="0px" y="0px"
	 viewBox="0 0 349.5 364.13" style="enable-background:new 0 0 349.5 364.13;" xml:space="preserve">
<style type="text/css">
	.st0{fill:none;stroke:#505050;stroke-width:2;stroke-miterlimit:10;}
	.st1{fill:none;stroke:#585351;stroke-width:16;stroke-linejoin:round;stroke-miterlimit:10;}
	.st2{fill:none;stroke:#585351;stroke-width:16;stroke-miterlimit:10;}
	.st3{fill:none;stroke:#585351;stroke-width:16;stroke-linecap:round;stroke-linejoin:round;stroke-miterlimit:10;}
	.st4{fill:none;stroke:#505050;stroke-width:2;stroke-linejoin:round;stroke-miterlimit:10;}
	.st5{fill:#505050;stroke:#505050;stroke-miterlimit:10;}
	.st6{fill:#D64541;}
</style>
<g id="XMLID_2_">
	<rect id="XMLID_36_" x="59.5" y="11" class="st1" width="64" height="288"/>
	<line id="XMLID_35_" class="st1" x1="99.5" y1="51" x2="123.5" y2="51"/>
	<line id="XMLID_34_" class="st1" x1="91.5" y1="91" x2="123.5" y2="91"/>
	<line id="XMLID_33_" class="st1" x1="99.5" y1="131" x2="123.5" y2="131"/>
	<line id="XMLID_32_" class="st1" x1="99.5" y1="171" x2="123.5" y2="171"/>
	<line id="XMLID_31_" class="st1" x1="91.5" y1="211" x2="123.5" y2="211"/>
	<line id="XMLID_30_" class="st1" x1="99.5" y1="251" x2="123.5" y2="251"/>
	<path id="XMLID_29_" class="st1" d="M315.5,43c-13.25,0-24,10.75-24,24v224.2c0,10.34,24,55.8,24,55.8s24-45.46,24-55.8V67
		C339.5,53.75,328.75,43,315.5,43z"/>
	<line id="XMLID_24_" class="st2" x1="291.5" y1="91" x2="339.5" y2="91"/>
	<line id="XMLID_11_" class="st1" x1="291.5" y1="275" x2="339.5" y2="275"/>
	<polyline id="XMLID_6_" class="st1" points="147.5,51 219.5,51 251.5,83 251.5,355 11.5,355 11.5,51 35.5,51 	"/>
	<polyline id="XMLID_3_" class="st3" points="202.97,74.63 203.05,98.63 227.05,98.54 	"/>
</g>
</svg>
