<?xml version="1.0" encoding="utf-8"?>
<!-- Generator: Adobe Illustrator 23.0.0, SVG Export Plug-In . SVG Version: 6.00 Build 0)  -->
<svg version="1.1" id="icons" xmlns="http://www.w3.org/2000/svg" xmlns:xlink="http://www.w3.org/1999/xlink" x="0px" y="0px"
	 viewBox="0 0 46.13 47" style="enable-background:new 0 0 46.13 47;" xml:space="preserve">
<style type="text/css">
	.st0{fill:none;stroke:#505050;stroke-width:2;stroke-miterlimit:10;}
	.st1{fill:none;stroke:#585351;stroke-width:16;stroke-linejoin:round;stroke-miterlimit:10;}
	.st2{fill:none;stroke:#585351;stroke-width:16;stroke-miterlimit:10;}
	.st3{fill:none;stroke:#585351;stroke-width:16;stroke-linecap:round;stroke-linejoin:round;stroke-miterlimit:10;}
	.st4{fill:none;stroke:#505050;stroke-width:2;stroke-linejoin:round;stroke-miterlimit:10;}
	.st5{fill:#505050;stroke:#505050;stroke-miterlimit:10;}
	.st6{fill:#D64541;}
</style>
<g>
	<polyline class="st0" points="33.88,34.38 33.88,45.38 1.88,45.38 1.88,2.38 33.88,2.38 33.88,18.38 	"/>
	<path class="st0" d="M43.2,17.13c1.05,1.05,1.23,2.04,1.15,2.59L28.92,35.15c-2.43,2.43-6.04,2.22-6.04,2.22s-0.21-3.61,2.23-6.04
		L40.54,15.9c0.55-0.07,1.54,0.1,2.59,1.15L43.2,17.13z"/>
	<line class="st0" x1="38.39" y1="17.98" x2="42.21" y2="21.79"/>
	<line class="st0" x1="24.88" y1="31.38" x2="28.88" y2="35.38"/>
	<line class="st4" x1="17.88" y1="13.38" x2="26.88" y2="13.38"/>
	<polyline class="st4" points="14.88,12.38 10.88,17.38 8.88,14.38 	"/>
	<line class="st4" x1="17.88" y1="22.38" x2="26.88" y2="22.38"/>
	<line class="st4" x1="17.88" y1="17.38" x2="24.88" y2="17.38"/>
	<line class="st4" x1="17.88" y1="26.38" x2="23.88" y2="26.38"/>
	<polyline class="st4" points="14.88,21.38 10.88,26.38 8.88,23.38 	"/>
	<polyline class="st4" points="14.88,30.38 10.88,35.38 8.88,32.38 	"/>
</g>
</svg>
