<?xml version="1.0" encoding="utf-8"?>
<!-- Generator: Adobe Illustrator 23.0.0, SVG Export Plug-In . SVG Version: 6.00 Build 0)  -->
<svg version="1.1" id="icons" xmlns="http://www.w3.org/2000/svg" xmlns:xlink="http://www.w3.org/1999/xlink" x="0px" y="0px"
	 viewBox="0 0 326 387.33" style="enable-background:new 0 0 326 387.33;" xml:space="preserve">
<style type="text/css">
	.st0{fill:none;stroke:#505050;stroke-width:2;stroke-miterlimit:10;}
	.st1{fill:none;stroke:#585351;stroke-width:16;stroke-linejoin:round;stroke-miterlimit:10;}
	.st2{fill:none;stroke:#585351;stroke-width:16;stroke-miterlimit:10;}
	.st3{fill:none;stroke:#585351;stroke-width:16;stroke-linecap:round;stroke-linejoin:round;stroke-miterlimit:10;}
	.st4{fill:none;stroke:#505050;stroke-width:2;stroke-linejoin:round;stroke-miterlimit:10;}
	.st5{fill:#505050;stroke:#505050;stroke-miterlimit:10;}
	.st6{fill:#D64541;}
</style>
<g id="XMLID_37_">
	<polygon id="XMLID_42_" class="st3" points="45.61,11.59 13.61,43.59 13.61,315.59 253.61,315.59 253.61,11.59 	"/>
	<polyline id="XMLID_41_" class="st3" points="42.08,340.94 40.82,353.91 284.27,377.59 315.05,61.1 279.63,57.65 	"/>
	<polyline id="XMLID_40_" class="st3" points="62.14,35.22 62.06,59.22 38.06,59.14 	"/>
	<path id="XMLID_39_" class="st1" d="M197.61,179.59c0,3.01-0.28,5.95-0.68,8.84l15.56,14.53l-19.2,33.26l-20.35-6.21
		c-4.64,3.63-9.78,6.64-15.33,8.89l-4.8,20.7h-38.4l-4.8-20.7c-5.54-2.25-10.68-5.26-15.33-8.89l-20.35,6.21l-19.2-33.26
		l15.56-14.53c-0.4-2.9-0.68-5.84-0.68-8.84c0-3.01,0.28-5.95,0.68-8.84l-15.56-14.53l19.2-33.26l20.35,6.21
		c4.64-3.63,9.78-6.64,15.33-8.89l4.8-20.7h38.4l4.8,20.7c5.54,2.25,10.68,5.26,15.33,8.89l20.35-6.21l19.2,33.26l-15.56,14.53
		C197.33,173.65,197.61,176.58,197.61,179.59z"/>
	<circle id="XMLID_38_" class="st1" cx="133.61" cy="179.59" r="24"/>
</g>
</svg>
