<?xml version="1.0" encoding="utf-8"?>
<!-- Generator: Adobe Illustrator 23.0.0, SVG Export Plug-In . SVG Version: 6.00 Build 0)  -->
<svg version="1.1" xmlns="http://www.w3.org/2000/svg" xmlns:xlink="http://www.w3.org/1999/xlink" x="0px" y="0px"
	 viewBox="0 0 397 398" style="enable-background:new 0 0 397 398;" xml:space="preserve">
<style type="text/css">
	.st0{fill:#FFFFFF;}
	.st1{fill:#333333;}
	.st2{fill:none;stroke:#515151;stroke-width:2;stroke-linecap:round;stroke-miterlimit:10;}
	.st3{fill:none;stroke:#515151;stroke-width:2;stroke-linecap:round;stroke-linejoin:round;stroke-miterlimit:10;}
	.st4{fill:none;stroke:#515151;stroke-width:2;stroke-miterlimit:10;}
	.st5{fill:none;stroke:#515151;stroke-width:2;stroke-linejoin:round;stroke-miterlimit:10;}
	.st6{fill:none;stroke:#515151;stroke-width:16;stroke-linecap:round;stroke-miterlimit:10;}
	.st7{fill:none;stroke:#515151;stroke-width:16;stroke-linecap:round;stroke-linejoin:round;stroke-miterlimit:10;}
	.st8{fill:none;stroke:#515151;stroke-width:16;stroke-miterlimit:10;}
	.st9{fill:none;stroke:#515151;stroke-width:16;stroke-linejoin:round;stroke-miterlimit:10;}
</style>
<g id="Label">
</g>
<g id="_x34_8x48_Icons">
</g>
<g id="Large_Preview">
	<g>
		<path class="st7" d="M238,145.07v-34.13l-29.46-4.27c-2.01-7.81-5.08-15.17-9.09-21.95l17.81-23.85l-24.14-24.14l-23.85,17.81
			c-6.77-4-14.14-7.07-21.95-9.09L143.07,16h-34.13l-4.27,29.46c-7.81,2.01-15.17,5.08-21.95,9.09L58.87,36.74L34.74,60.87
			l17.81,23.85c-4,6.77-7.07,14.14-9.09,21.95L14,110.93v34.13l29.46,4.27c2.01,7.81,5.08,15.17,9.09,21.95l-17.81,23.85
			l24.14,24.14l23.85-17.81c6.77,4,14.14,7.07,21.95,9.09l4.27,29.46h34.13l4.27-29.46c7.81-2.01,15.17-5.08,21.95-9.09l23.85,17.81
			l24.14-24.14l-17.81-23.85c4-6.77,7.07-14.14,9.09-21.95L238,145.07z"/>
		<circle class="st7" cx="126" cy="128" r="32"/>
		<path class="st9" d="M310,304c0-3.01-0.28-5.95-0.68-8.84l15.56-14.53l-19.2-33.26l-20.35,6.21c-4.64-3.63-9.78-6.64-15.33-8.89
			l-4.8-20.7h-38.4l-4.8,20.7c-5.54,2.25-10.68,5.26-15.33,8.89l-20.35-6.21l-19.2,33.26l15.56,14.53c-0.4,2.9-0.68,5.83-0.68,8.84
			s0.28,5.95,0.68,8.84l-15.56,14.53l19.2,33.26l20.35-6.21c4.64,3.63,9.78,6.64,15.33,8.89l4.8,20.7h38.4l4.8-20.7
			c5.54-2.25,10.68-5.26,15.33-8.89l20.35,6.21l19.2-33.26l-15.56-14.53C309.72,309.95,310,307.01,310,304z"/>
		<circle class="st9" cx="246" cy="304" r="24"/>
		<path class="st7" d="M326,227.3c5.54-2.25,10.68-5.26,15.33-8.89l20.35,6.21l19.2-33.26l-15.56-14.53c0.4-2.9,0.68-5.83,0.68-8.84
			s-0.28-5.95-0.68-8.84l15.56-14.53l-19.2-33.26l-20.35,6.21c-4.64-3.63-9.78-6.64-15.33-8.89L321.2,88h-38.4l-4.8,20.7
			c-5.54,2.25-10.68,5.26-15.33,8.89"/>
		<circle class="st9" cx="302" cy="168" r="24"/>
	</g>
</g>
</svg>
